<?xml version="1.0" standalone="no"?>
<!DOCTYPE svg PUBLIC "-//W3C//DTD SVG 20010904//EN"
 "http://www.w3.org/TR/2001/REC-SVG-20010904/DTD/svg10.dtd">
<svg version="1.0" xmlns="http://www.w3.org/2000/svg"
 width="200.000000pt" height="70.000000pt" viewBox="0 0 200.000000 70.000000"
 preserveAspectRatio="xMidYMid meet">
<metadata>
Created by potrace 1.16, written by Peter Selinger 2001-2019
</metadata>
<g transform="translate(0.000000,70.000000) scale(0.100000,-0.100000)"
fill="#000000" stroke="none">
<path d="M565 473 c-4 -10 -25 -65 -46 -122 -22 -57 -44 -110 -49 -116 -8 -9
-4 -12 14 -12 17 0 22 4 19 16 -2 9 3 33 12 54 14 35 18 37 59 37 l43 0 18
-55 c16 -46 23 -55 42 -55 l24 0 -20 27 c-11 16 -39 76 -61 136 -23 59 -43
107 -45 107 -1 0 -6 -8 -10 -17z"/>
</g>
</svg>
